<?xml version="1.0" encoding="UTF-8" standalone="no"?>
<!-- Created with Inkscape (http://www.inkscape.org/) -->

<svg
   xmlns:dc="http://purl.org/dc/elements/1.1/"
   xmlns:cc="http://creativecommons.org/ns#"
   xmlns:rdf="http://www.w3.org/1999/02/22-rdf-syntax-ns#"
   xmlns:svg="http://www.w3.org/2000/svg"
   xmlns="http://www.w3.org/2000/svg"
   xmlns:sodipodi="http://sodipodi.sourceforge.net/DTD/sodipodi-0.dtd"
   xmlns:inkscape="http://www.inkscape.org/namespaces/inkscape"
   width="99.199997mm"
   height="100mm"
   viewBox="0 0 99.199997 100"
   version="1.1"
   id="svg8"
   inkscape:version="0.92.3 (2405546, 2018-03-11)"
   sodipodi:docname="black.svg">
  <defs
     id="defs2" />
  <sodipodi:namedview
     id="base"
     pagecolor="#ffffff"
     bordercolor="#666666"
     borderopacity="1.0"
     inkscape:pageopacity="0.0"
     inkscape:pageshadow="2"
     inkscape:zoom="0.49497475"
     inkscape:cx="284.28935"
     inkscape:cy="-96.690759"
     inkscape:document-units="mm"
     inkscape:current-layer="layer1"
     showgrid="false"
     fit-margin-top="0"
     fit-margin-left="-0.8"
     fit-margin-right="0"
     fit-margin-bottom="0"
     inkscape:pagecheckerboard="true"
     inkscape:window-width="1366"
     inkscape:window-height="745"
     inkscape:window-x="-8"
     inkscape:window-y="-8"
     inkscape:window-maximized="1" />
  <metadata
     id="metadata5">
    <rdf:RDF>
      <cc:Work
         rdf:about="">
        <dc:format>image/svg+xml</dc:format>
        <dc:type
           rdf:resource="http://purl.org/dc/dcmitype/StillImage" />
        <dc:title></dc:title>
      </cc:Work>
    </rdf:RDF>
  </metadata>
  <g
     inkscape:label="Layer 1"
     inkscape:groupmode="layer"
     id="layer1"
     transform="translate(-34.192563,-10.472729)">
    <ellipse
       style="opacity:1;fill:#000000;fill-opacity:1;stroke:none;stroke-width:6.97535276;stroke-linejoin:miter;stroke-miterlimit:4;stroke-dasharray:6.97535254, 27.90141023;stroke-dashoffset:0;stroke-opacity:0.94117647"
       id="path5129"
       cx="84.012321"
       cy="59.923775"
       rx="49.592999"
       ry="49.792999" />
    <g
       id="g5123"
       style="fill:none"
       transform="matrix(0.997,0,0,1,0.10017768,0)">
      <circle
         r="50"
         cy="60.472729"
         cx="83.392563"
         id="path5116"
         style="opacity:1;fill:none;fill-opacity:1;stroke:none;stroke-width:4.57800055;stroke-linejoin:miter;stroke-miterlimit:4;stroke-dasharray:9.15600083, 4.57800044;stroke-dashoffset:0;stroke-opacity:0.94117647" />
      <ellipse
         ry="44.002899"
         rx="44.002903"
         cy="60.220142"
         cx="83.435654"
         id="path5114"
         style="opacity:1;fill:none;fill-opacity:1;stroke:#ffffff;stroke-width:6.99419737;stroke-linejoin:miter;stroke-miterlimit:4;stroke-dasharray:13.98839394, 6.99419696;stroke-dashoffset:0;stroke-opacity:0.94117647" />
      <circle
         transform="rotate(26.224946)"
         r="36.052479"
         cy="17.608213"
         cx="100.60497"
         id="path5118"
         style="opacity:1;fill:none;fill-opacity:1;stroke:#ffffff;stroke-width:6.49499989;stroke-linejoin:miter;stroke-miterlimit:4;stroke-dasharray:6.495, 25.98;stroke-dashoffset:0;stroke-opacity:0.94117647" />
    </g>
    <path
       style="opacity:1;fill:none;fill-opacity:1;stroke:none;stroke-width:70.13722992;stroke-linejoin:miter;stroke-miterlimit:4;stroke-dasharray:70.13723286, 280.54893136999999115;stroke-dashoffset:0;stroke-opacity:0.94117647"
       d="M 140.44315,371.08008 C 110.74199,363.89236 77.693718,344.78105 54.243569,321.23208 17.386058,284.21931 -0.66430627,241.08271 -0.86520999,189.53365 -1.0723786,136.37716 15.492678,96.685321 54.104329,57.820132 83.364549,28.367778 112.39824,12.563724 151.23982,4.9458841 246.34292,-13.706298 341.5195,46.285052 367.3929,141.19069 c 7.58574,27.82513 6.98234,72.62253 -1.34388,99.77153 -19.83575,64.67772 -72.32532,115.12332 -135.21516,129.9498 -21.86325,5.15434 -69.42089,5.24274 -90.39071,0.168 z m 64.83095,-3.43377 c 6.21564,-1.66375 6.61609,-2.8548 4.978,-14.80595 -0.97977,-7.14817 -3.37864,-14.01102 -5.33082,-15.2508 -2.31105,-1.46765 -1.18192,-2.2694 3.23628,-2.29788 6.07069,-0.0391 6.59755,-0.98454 5,-8.97232 -0.98214,-4.91071 -1.78572,-10.69642 -1.78572,-12.85714 0,-2.75131 -3.85281,-3.92857 -12.85714,-3.92857 h -12.85714 v 14.07623 c 0,10.94551 1.11205,14.4006 5,15.53477 2.75,0.8022 -3.4919,0.76669 -13.87089,-0.0789 l -18.87089,-1.53751 -1.84339,9.217 c -3.40594,17.02971 -2.52419,19.48474 7.44231,20.72157 15.97385,1.98234 34.7231,2.06294 41.7594,0.17943 z m 62.48518,-18.788 c 23.90339,-11.59215 25.06354,-13.39066 16.30008,-25.26886 -3.96446,-5.37354 -8.11957,-9.74683 -9.23354,-9.7184 -5.05308,0.12886 -43.34523,20.25897 -43.38146,22.80546 -0.0223,1.57143 1.31546,7.7406 2.97292,13.70925 3.48731,12.55815 4.38152,12.51718 33.342,-1.52745 z m -135.42436,-3.5414 4.35736,-12.78817 -21.94182,-11.49755 c -12.068,-6.32365 -22.586525,-11.48877 -23.374502,-11.47803 -0.787977,0.0114 -4.535911,4.57589 -8.32874,10.14478 -5.995557,8.80305 -6.359909,10.66137 -2.790214,14.23108 5.122148,5.12214 39.941796,24.02323 44.417696,24.11117 1.81656,0.0357 5.26366,-5.6898 7.66022,-12.72328 z m 189.03692,-37.76866 c 12.49452,-15.3884 24.2594,-33.25709 24.27349,-36.86691 0.006,-1.72592 -5.45206,-5.30337 -12.13063,-7.9499 -11.32488,-4.48772 -12.33531,-4.4912 -15,-0.0517 -1.57143,2.61809 -7.67857,10.97915 -13.57143,18.58013 -5.89285,7.60099 -10.71428,14.64562 -10.71428,15.65476 0,2.20114 15.10425,20.68986 17.14285,20.98409 0.78572,0.11343 5.28572,-4.54429 10,-10.35046 z M 82.041692,298.97902 c 4.504446,4.50443 5.399215,4.2328 14.220277,-4.31691 l 9.413371,-9.1238 -8.983596,-9.26871 -8.983595,-9.26871 -9.473248,7.2256 c -5.210289,3.97407 -10.799272,6.40607 -12.419969,5.40442 -1.620694,-1.00164 -6.298428,-7.54043 -10.394965,-14.53064 -4.096538,-6.99021 -8.020155,-12.70948 -8.719152,-12.70948 -2.893871,0 -23.9004,11.68283 -23.9004,13.29226 0,3.12266 12.146972,22.12411 22.088774,34.55337 l 9.703509,12.13137 11.321046,-9.09785 c 10.6087,-8.52538 11.623503,-8.79538 16.127948,-4.29092 z m 229.393548,-35.28393 5.69603,-11.16513 -11.72803,-5.98319 c -6.4504,-3.29075 -12.023,-5.57206 -12.38354,-5.06958 -0.36054,0.50248 -3.44837,5.56232 -6.8618,11.24409 l -6.20628,10.33049 10.71011,7.18219 c 5.89057,3.9502 11.69277,6.6071 12.8938,5.90423 1.20103,-0.70288 4.74689,-6.30227 7.87971,-12.4431 z m 51.06009,-36.44493 c 1.73923,-8.32735 3.16223,-24.07735 3.16223,-35 v -19.85937 l -10.71429,0.0437 c -5.89285,0.024 -12.13371,0.98834 -13.86857,2.14285 -1.73486,1.15451 -3.96943,12.38482 -4.96574,24.95625 -0.99632,12.57143 -2.56237,26.09338 -3.48014,30.04879 -1.48438,6.39727 -0.30469,7.70119 10.68002,11.80472 6.7918,2.53719 13.17572,3.80096 14.18649,2.80836 1.01077,-0.9926 3.26077,-8.61801 5,-16.94536 z m -335.034572,7.6054 c 11.163129,-2.81091 12.696491,-4.0804 11.360077,-9.40509 -0.84972,-3.38556 -2.40752,-13.49471 -3.461774,-22.46477 l -1.916826,-16.30919 h 13.25052 c 12.722797,0 13.267586,-0.34137 13.679089,-8.57143 0.235714,-4.71429 0.557143,-10.17282 0.714285,-12.13008 0.158172,-1.96996 -5.115077,-4.69796 -11.812077,-6.11072 -11.199114,-2.3625 -11.963485,-3.1063 -10.289797,-10.01278 0.994397,-4.10339 4.770374,-14.23301 8.39106,-22.51028 l 6.583066,-15.04957 -11.399552,-7.19622 c -6.269751,-3.95792 -12.496128,-6.518498 -13.836391,-5.690169 -3.01954,1.866179 -15.979401,34.086519 -18.586842,46.209939 -1.8928743,8.801 -1.7221234,8.96873 11.085451,10.88935 12.907274,1.93556 13.00794,2.03775 13.00794,13.20417 v 11.2535 H 19.519794 4.810602 l 1.8167497,22.14286 c 1.8096383,22.05618 4.2762363,35 6.6696673,35 0.69229,0 7.065973,-1.46229 14.163739,-3.24952 z M 326.18113,153.46279 c 1.07369,-0.64543 -0.0389,-7.01701 -2.47249,-14.15908 -3.43654,-10.08565 -5.46762,-12.56128 -9.095,-11.08559 -2.56871,1.045 -8.24814,3.19465 -12.621,4.777 -8.24951,2.98515 -8.3286,3.91717 -1.81108,21.34777 2.13066,5.69831 3.27143,5.98075 13.18991,3.26561 5.97163,-1.63472 11.73597,-3.50029 12.80966,-4.14571 z m 23.04786,-4.07937 c 7.8596,-2.18272 10.71428,-4.51212 10.71428,-8.74275 0,-6.65449 -18.63797,-48.249878 -21.61971,-48.249878 -1.51266,0 -16.67306,8.373298 -23.461,12.957838 -0.43726,0.29532 2.4556,7.00877 6.42857,14.91877 3.97297,7.91001 7.22357,15.0757 7.22357,15.92376 0,4.07449 5.83283,16.19776 7.78643,16.1837 1.21746,-0.009 7.035,-1.35491 12.92786,-2.99144 z M 78.587181,80.887995 l 11.232183,-11.5028 8.890614,10.589729 8.890612,10.589728 10.41082,-6.43424 10.41082,-6.434237 -5.72612,-11.22412 c -6.26872,-12.287705 -6.54268,-12.4551 -13.92135,-8.506157 -4.17792,2.235957 -6.20378,0.7159 -11.423551,-8.571428 -3.489745,-6.209166 -8.179562,-11.289392 -10.421814,-11.289392 -2.242254,0 -12.767131,8.373046 -23.388617,18.606769 l -19.311791,18.606768 9.892074,8.536089 c 5.44064,4.694848 10.643991,8.536088 11.563006,8.536088 0.919014,0 6.725414,-5.17626 12.903114,-11.502797 z M 319.62799,66.428515 C 317.28033,61.68497 298.28156,45.446438 285.11536,36.930081 l -7.68503,-4.970966 -7.7139,12.219589 -7.71389,12.219588 6.82751,4.401458 c 3.75513,2.420802 12.58348,9.761948 19.61857,16.313657 l 12.79105,11.912197 10.31606,-9.031692 c 7.41226,-6.489411 9.68449,-10.30786 8.07226,-13.565397 z m -82.54186,7.739775 c 0,-0.593806 1.92723,-5.692146 4.28272,-11.329646 4.83102,-11.562252 3.1233,-13.591 -14.64945,-17.403354 -8.08434,-1.734135 -9.12078,-1.152332 -10.84996,6.090537 -1.0515,4.404303 -2.54121,10.134814 -3.31048,12.734468 -0.95797,3.237349 1.11033,5.641949 6.56425,7.63158 8.14032,2.969649 17.96292,4.214455 17.96292,2.276415 z M 145.39736,42.047355 c 6.92832,-2.168251 15.60689,-3.942277 19.28572,-3.942277 5.70906,0 6.68876,-1.430477 6.68876,-9.766323 0,-14.277351 -2.57914,-18.8051055 -10.71193,-18.8051055 -8.60135,0 -45.707,10.7065715 -47.33494,13.6581615 -0.62373,1.130868 1.34615,7.622256 4.3775,14.425304 4.26125,9.5632 6.59891,11.915855 10.30475,10.370849 2.63626,-1.09908 10.46182,-3.772354 17.39014,-5.940609 z m 101.83456,-5.27908 c 2.27696,-5.449528 4.13992,-11.708675 4.13992,-13.909214 0,-4.411347 -25.4668,-12.379892 -44.28571,-13.8569669 L 195.65756,8.1050781 V 22.351441 36.597804 l 14.48865,2.085117 c 7.96876,1.146814 17.61161,3.333026 21.42857,4.858249 10.50334,4.19704 11.19942,3.895937 15.65714,-6.772895 z"
       id="path5127"
       inkscape:connector-curvature="0"
       transform="matrix(0.26458333,0,0,0.26458333,34.192563,10.472729)" />
  </g>
</svg>
